<svg xmlns="http://www.w3.org/2000/svg" width="360px" height="64px" viewBox="0 0 360 64" role="img" aria-label="Elementor Logo">
  <defs>
    <style>
      .e-logo-color {
        fill: #ed01ee;
      }
      @media (prefers-color-scheme: dark) {
        .e-logo-color {
          fill: #fff;
        }
      }
    </style>
  </defs>
  <path class="e-logo-color" d="m31.32.8C14.02.8,0,14.76,0,32s14.02,31.2,31.32,31.2,31.32-13.96,31.32-31.2S48.63.8,31.32.8Zm-9.4,46.8h-6.26v-31.2h6.26v31.2Zm25.06,0h-18.79v-6.24h18.79v6.24Zm0-12.48h-18.79v-6.24h18.79v6.24Zm0-12.48h-18.79v-6.24h18.79v6.24Z"/>
  <path class="e-logo-color" d="m90.25,41.7c1.68,1.72,3.82,2.57,6.37,2.57,2.15,0,3.91-.45,5.28-1.36,1.39-.9,2.28-2.18,2.7-3.84h6.56c-.58,3.26-2.18,5.87-4.83,7.83-2.63,1.97-5.88,2.93-9.71,2.93-3.09,0-5.8-.67-8.13-2.01-2.32-1.34-4.15-3.15-5.44-5.41-1.29-2.26-1.96-4.73-2.01-7.36h6.37c.2,2.73,1.15,4.95,2.85,6.66l-.02-.02Zm-2.96-8.69c0-.7.08-1.62.25-2.79h16.75c-.17-2.23-.98-4.02-2.45-5.38-1.46-1.36-3.41-2.04-5.84-2.04-2.28,0-4.13.66-5.6,1.98-1.46,1.33-2.42,3.14-2.88,5.44h-6.37c.37-2.36,1.2-4.49,2.48-6.41,1.28-1.92,2.98-3.43,5.1-4.52,2.12-1.09,4.55-1.64,7.26-1.64,3.18,0,5.89.69,8.13,2.07,2.24,1.39,3.94,3.2,5.07,5.44,1.14,2.25,1.7,4.71,1.7,7.39,0,.75-.05,1.58-.12,2.48h-23.38c-.08-.98-.12-1.67-.12-2.04l.03.02Z"/>
  <path class="e-logo-color" d="m115.48,10.66h-4.94v-5.69h11.56v44.38h-6.62V10.66Z"/>
  <path class="e-logo-color" d="m135.02,41.7c1.68,1.72,3.82,2.57,6.37,2.57,2.15,0,3.91-.45,5.28-1.36,1.39-.9,2.28-2.18,2.7-3.84h6.56c-.58,3.26-2.18,5.87-4.83,7.83-2.63,1.97-5.88,2.93-9.71,2.93-3.09,0-5.8-.67-8.14-2.01-2.32-1.34-4.15-3.15-5.44-5.41-1.29-2.26-1.96-4.73-2.01-7.36h6.37c.2,2.73,1.15,4.95,2.85,6.66l-.02-.02Zm-2.96-8.69c0-.7.08-1.62.25-2.79h16.75c-.17-2.23-.98-4.02-2.45-5.38-1.47-1.36-3.41-2.04-5.84-2.04-2.28,0-4.13.66-5.6,1.98-1.46,1.33-2.42,3.14-2.88,5.44h-6.37c.37-2.36,1.2-4.49,2.48-6.41,1.28-1.92,2.98-3.43,5.1-4.52,2.12-1.09,4.55-1.64,7.26-1.64,3.18,0,5.89.69,8.14,2.07,2.24,1.39,3.94,3.2,5.06,5.44,1.14,2.25,1.7,4.71,1.7,7.39,0,.75-.05,1.58-.12,2.48h-23.38c-.08-.98-.12-1.67-.12-2.04l.03.02Z"/>
  <path class="e-logo-color" d="m162.2,23.79h-4.94v-5.63h11.5v5.26c.75-1.78,1.92-3.18,3.52-4.21,1.61-1.03,3.52-1.54,5.75-1.54,2.35,0,4.43.56,6.22,1.67s2.99,2.64,3.62,4.59c.7-1.81,2.01-3.31,3.93-4.49,1.92-1.17,4.01-1.76,6.28-1.76,3.38,0,6.06,1.08,8.04,3.21,1.98,2.15,2.96,4.99,2.96,8.55v19.94h-6.56v-18.08c0-2.39-.58-4.31-1.73-5.76s-2.7-2.17-4.64-2.17c-2.18,0-3.94.87-5.25,2.61-1.32,1.73-1.98,3.84-1.98,6.32v17.08h-6.62v-18.08c0-2.39-.56-4.31-1.7-5.76s-2.66-2.17-4.61-2.17c-2.15,0-3.88.87-5.22,2.64-1.34,1.75-2.01,3.85-2.01,6.29v17.08h-6.56v-25.57h.02Z"/>
  <path class="e-logo-color" d="m221.94,41.7c1.68,1.72,3.82,2.57,6.37,2.57,2.15,0,3.91-.45,5.28-1.36,1.39-.9,2.28-2.18,2.7-3.84h6.56c-.58,3.26-2.18,5.87-4.83,7.83-2.63,1.97-5.87,2.93-9.71,2.93-3.09,0-5.8-.67-8.14-2.01-2.32-1.34-4.14-3.15-5.44-5.41-1.29-2.26-1.96-4.73-2.01-7.36h6.37c.2,2.73,1.15,4.95,2.85,6.66l-.02-.02Zm-2.96-8.69c0-.7.08-1.62.25-2.79h16.75c-.17-2.23-.98-4.02-2.45-5.38-1.46-1.36-3.41-2.04-5.84-2.04-2.28,0-4.13.66-5.59,1.98-1.46,1.33-2.42,3.14-2.88,5.44h-6.37c.37-2.36,1.2-4.49,2.48-6.41,1.28-1.92,2.98-3.43,5.1-4.52,2.12-1.09,4.55-1.64,7.26-1.64,3.18,0,5.89.69,8.14,2.07,2.24,1.39,3.94,3.2,5.06,5.44,1.14,2.25,1.7,4.71,1.7,7.39,0,.75-.05,1.58-.12,2.48h-23.38c-.08-.98-.12-1.67-.12-2.04l.03.02Z"/>
  <path class="e-logo-color" d="m248.85,23.79h-4.94v-5.63h11.5v5.26c.83-1.86,2.12-3.28,3.86-4.27,1.75-.98,3.79-1.48,6.09-1.48,3.51,0,6.31,1.14,8.45,3.43,2.12,2.29,3.18,5.29,3.18,9v19.25h-6.62v-17.89c0-2.36-.64-4.24-1.92-5.69-1.28-1.45-2.96-2.17-5.06-2.17-2.31,0-4.22.83-5.72,2.48-1.51,1.65-2.26,3.76-2.26,6.32v16.96h-6.56v-25.55Z"/>
  <path class="e-logo-color" d="m288.58,46.57c-1.92-1.86-2.88-4.41-2.88-7.68v-15.1h-6.31v-5.63h6.31v-9.66h6.56v9.66h9.02v5.63h-9.02v14.85c0,1.61.42,2.85,1.26,3.74.84.89,2.01,1.33,3.49,1.33h4.27v5.63h-4.94c-3.26,0-5.84-.94-7.76-2.79v.02Z"/>
  <path class="e-logo-color" d="m311.02,47.77c-2.45-1.39-4.36-3.29-5.75-5.73-1.39-2.43-2.07-5.2-2.07-8.3s.69-5.87,2.07-8.3c1.39-2.43,3.3-4.34,5.75-5.73,2.45-1.39,5.22-2.07,8.32-2.07s5.86.69,8.32,2.07c2.45,1.39,4.36,3.29,5.75,5.73,1.39,2.43,2.07,5.2,2.07,8.3s-.69,5.87-2.07,8.3c-1.39,2.43-3.3,4.34-5.75,5.73-2.45,1.39-5.22,2.07-8.32,2.07s-5.86-.69-8.32-2.07Zm15.15-6.55c1.75-1.92,2.63-4.4,2.63-7.46s-.87-5.54-2.63-7.46c-1.75-1.92-4.04-2.89-6.83-2.89s-5.07.95-6.81,2.89c-1.73,1.92-2.6,4.4-2.6,7.46s.87,5.54,2.6,7.46c1.73,1.92,4.01,2.89,6.81,2.89s5.08-.95,6.83-2.89Z"/>
  <path class="e-logo-color" d="m341.52,23.79h-4.94v-5.63h11.5v5.82c.75-2.03,1.76-3.49,3.05-4.43,1.29-.94,3.02-1.39,5.16-1.39h3.71v5.63h-4.64c-2.56,0-4.41,1-5.56,3-1.15,2-1.73,4.74-1.73,8.21v14.37h-6.56v-25.57h.02Z"/>
</svg>